<?xml version="1.0" encoding="utf-8"?>
<!-- Generator: Adobe Adobe Illustrator 24.2.0, SVG Export Plug-In . SVG Version: 6.00 Build 0)  -->
<svg version="1.1" xmlns="http://www.w3.org/2000/svg" xmlns:xlink="http://www.w3.org/1999/xlink" x="0px" y="0px"
	 width="1011.9px" height="980px" viewBox="0 0 1011.9 980" style="enable-background:new 0 0 1011.9 980;" xml:space="preserve">
<style type="text/css">
	.st0{display:none;}
	.st1{fill:#333333;}
	.st2{fill:#F6F6F6;}
	.st3{fill:#35F2A0;}
	.st4{fill:#7EF2C0;}
	.st5{opacity:0.502;fill:url(#SVGID_1_);}
	.st6{opacity:0.502;fill:url(#SVGID_2_);}
	.st7{opacity:0.502;fill:url(#SVGID_3_);}
	.st8{opacity:0.502;fill:url(#SVGID_4_);}
	.st9{opacity:0.502;}
	.st10{fill:url(#SVGID_5_);}
	.st11{fill:url(#SVGID_6_);}
	.st12{opacity:0.502;fill:url(#SVGID_7_);}
	.st13{opacity:0.502;fill:url(#SVGID_8_);}
	.st14{fill:#FFFFFF;}
	.st15{display:inline;opacity:0.502;}
	.st16{display:inline;opacity:0.502;fill:none;stroke:#000000;stroke-miterlimit:10;}
	.st17{opacity:0.502;fill:url(#SVGID_9_);}
	.st18{opacity:0.502;fill:url(#SVGID_10_);}
	.st19{opacity:0.502;fill:url(#SVGID_11_);}
	.st20{opacity:0.502;fill:url(#SVGID_12_);}
	.st21{fill:url(#SVGID_13_);}
	.st22{fill:url(#SVGID_14_);}
	.st23{opacity:0.502;fill:url(#SVGID_15_);}
	.st24{opacity:0.502;fill:url(#SVGID_16_);}
	.st25{opacity:0.8;fill:url(#SVGID_17_);}
	.st26{opacity:0.502;fill:url(#SVGID_18_);}
	.st27{opacity:0.502;fill:url(#SVGID_19_);}
	.st28{opacity:0.502;fill:url(#SVGID_20_);}
	.st29{opacity:0.502;fill:url(#SVGID_21_);}
	.st30{fill:url(#SVGID_22_);}
	.st31{fill:url(#SVGID_23_);}
	.st32{opacity:0.502;fill:url(#SVGID_24_);}
	.st33{opacity:0.502;fill:url(#SVGID_25_);}
	.st34{opacity:0.8;fill:url(#SVGID_26_);}
	.st35{opacity:0.502;fill:url(#SVGID_27_);}
	.st36{opacity:0.502;fill:url(#SVGID_28_);}
	.st37{opacity:0.502;fill:url(#SVGID_29_);}
	.st38{opacity:0.502;fill:url(#SVGID_30_);}
	.st39{fill:url(#SVGID_31_);}
	.st40{fill:url(#SVGID_32_);}
	.st41{opacity:0.502;fill:url(#SVGID_33_);}
	.st42{opacity:0.502;fill:url(#SVGID_34_);}
	.st43{opacity:0.8;fill:url(#SVGID_35_);}
	.st44{opacity:0.502;fill:url(#SVGID_36_);}
	.st45{opacity:0.502;fill:url(#SVGID_37_);}
	.st46{opacity:0.502;fill:url(#SVGID_38_);}
	.st47{opacity:0.502;fill:url(#SVGID_39_);}
	.st48{fill:url(#SVGID_40_);}
	.st49{fill:url(#SVGID_41_);}
	.st50{opacity:0.502;fill:url(#SVGID_42_);}
	.st51{opacity:0.502;fill:url(#SVGID_43_);}
	.st52{opacity:0.8;fill:url(#SVGID_44_);}
	.st53{fill:#26306B;}
	.st54{fill:none;}
	.st55{font-family:'GeomGraphic-Bold';}
	.st56{font-size:316px;}
	.st57{fill:none;stroke:#FFFFFF;stroke-width:6;stroke-miterlimit:10;}
	.st58{fill:none;stroke:#26306B;stroke-width:6;stroke-miterlimit:10;}
	.st59{fill:#26306B;stroke:#FFFFFF;stroke-width:6;stroke-miterlimit:10;}
	.st60{fill:none;stroke:#FFFFFF;stroke-width:6;stroke-linecap:round;stroke-linejoin:round;stroke-miterlimit:10;}
	.st61{fill:#26306B;stroke:#26306B;stroke-width:8;stroke-miterlimit:10;}
	.st62{fill:#26306B;stroke:#26306B;stroke-width:7;stroke-miterlimit:10;}
</style>
<g id="Layer_1" class="st0">
</g>
<g id="Base_color">
</g>
<g id="Layer_5">
</g>
<g id="Layer_4">
</g>
<g id="Layer_2" class="st0">
</g>
<g id="Layer_6">
	<rect x="95.41" y="684.88" class="st54" width="850" height="300"/>
	<g fill="#000000"><path d="M175.34,924.72c-7.94,0-13.27-5.21-13.27-12.95V704.47c0-7.75,5.33-12.95,13.27-12.95h48.98
					c8.12,0,13.58,5.21,13.58,12.95v157.37h132.09c7.94,0,13.27,5.21,13.27,12.95v36.97c0,7.75-5.33,12.95-13.27,12.95H175.34z"/><path d="M407.28,924.72c-7.68,0-12.64-4.84-12.64-12.32V758.83c0-7.48,4.96-12.32,12.64-12.32h44.24
					c7.68,0,12.64,4.84,12.64,12.32V912.4c0,7.48-4.96,12.32-12.64,12.32H407.28z M407.28,737.02c-7.68,0-12.64-4.84-12.64-12.32
					v-27.17c0-7.48,4.96-12.32,12.64-12.32h44.24c7.68,0,12.64,4.84,12.64,12.32v27.17c0,7.48-4.96,12.32-12.64,12.32H407.28z"/><path d="M619.31,924.72c-7.56,0-12.64-4.95-12.64-12.32v-97.33c0-5.16-0.44-8.16-1.29-8.9
					c-1.76-1.53-9.45-1.53-11.98-1.53h-16.75c-10.81,0-17.07,2.38-17.07,14.54v93.22c0,7.48-4.96,12.32-12.64,12.32h-44.24
					c-7.68,0-12.64-4.84-12.64-12.32V758.83c0-7.48,4.96-12.32,12.64-12.32h37.92c7.68,0,12.64,4.84,12.64,12.32v1.04
					c8.87-8.88,22.07-13.36,39.5-13.36h30.33c36.22,0,53.08,16.27,53.08,51.19V912.4c0,7.48-4.96,12.32-12.64,12.32H619.31z"/><path d="M832.61,924.72c-6.54,0-10.76-2.05-14.55-7.08l-43.03-54.54h-5.63v49.3c0,7.48-4.96,12.32-12.64,12.32
					h-44.24c-7.68,0-12.64-4.84-12.64-12.32V691.2c0-7.48,4.96-12.32,12.64-12.32h44.24c7.68,0,12.64,4.84,12.64,12.32v116.92h7.22
					l43.39-54.61c3.46-4.23,7.17-7.01,14.18-7.01h51.51c3.85,0,7.33,2.21,8.87,5.64c1.56,3.48,0.88,7.51-1.78,10.57l-59.36,71.95
					l60.94,73.84c2.7,3.11,3.42,7.18,1.86,10.65c-1.54,3.43-4.97,5.56-8.96,5.56H832.61z"/></g>
</g>
<g id="Layer_7">
	<g>
		<g>
			<path class="st14" d="M548.28,644.03c-14.59,0-26.46-11.87-26.46-26.46s11.87-26.46,26.46-26.46h63.5
				c43.76,0,79.37-35.61,79.37-79.37s-35.61-79.37-79.37-79.37H464.83l4.81-8.72c6.44-11.68,9.85-24.93,9.85-38.31v-5.88h132.28
				c72.94,0,132.28,59.34,132.28,132.28s-59.34,132.28-132.28,132.28H548.28z"/>
			<path class="st61" d="M611.78,385.35c69.7,0,126.4,56.7,126.4,126.4c0,69.7-56.7,126.4-126.4,126.4h-63.49
				c-11.38,0-20.58-9.2-20.58-20.58c0-11.38,9.2-20.58,20.58-20.58h63.49c47,0,85.25-38.24,85.25-85.25
				c0-47-38.24-85.25-85.25-85.25H474.79c6.73-12.2,10.58-26.25,10.58-41.15H611.78 M611.78,373.59h-126.4h-11.76v11.76
				c0,12.4-3.15,24.66-9.12,35.47l-9.62,17.44h19.92h136.98c40.52,0,73.49,32.97,73.49,73.49s-32.97,73.49-73.49,73.49h-63.49
				c-17.83,0-32.34,14.51-32.34,32.34c0,17.83,14.51,32.34,32.34,32.34h63.49c76.18,0,138.16-61.98,138.16-138.16
				S687.96,373.59,611.78,373.59L611.78,373.59z"/>
		</g>
		<g>
			<path class="st14" d="M285.6,451.5c-11.61-20.03-17.75-42.91-17.75-66.15V173.7c0-72.94,59.34-132.28,132.28-132.28
				s132.28,59.34,132.28,132.28v63.5c0,14.59-11.87,26.46-26.46,26.46c-14.59,0-26.46-11.87-26.46-26.46v-63.5
				c0-43.76-35.61-79.37-79.37-79.37s-79.37,35.61-79.37,79.37v211.65c0,9.23,1.57,18.25,4.67,26.8l1.42,3.91l-3.21,2.64
				c-11.17,9.17-20.54,20.21-27.87,32.81l-5.09,8.75L285.6,451.5z"/>
			<path class="st61" d="M400.13,47.3c69.7,0,126.4,56.7,126.4,126.4v63.5c0,11.38-9.2,20.58-20.58,20.58
				c-11.38,0-20.58-9.2-20.58-20.58v-63.5c0-47-38.24-85.25-85.25-85.25c-47,0-85.25,38.24-85.25,85.25v211.65
				c0,10.11,1.76,19.81,5.03,28.81c-11.67,9.58-21.58,21.25-29.22,34.39c-10.79-18.61-16.96-40.18-16.96-63.2V173.7
				C273.72,104,330.43,47.3,400.13,47.3 M400.13,35.54c-76.18,0-138.16,61.98-138.16,138.16v211.65c0,24.28,6.41,48.17,18.55,69.1
				l10.16,17.52l10.18-17.5c6.98-11.99,15.9-22.5,26.52-31.22l6.43-5.28l-2.84-7.82c-2.87-7.91-4.32-16.25-4.32-24.8V173.7
				c0-40.52,32.97-73.49,73.49-73.49s73.49,32.97,73.49,73.49v63.5c0,17.83,14.51,32.34,32.34,32.34
				c17.83,0,32.34-14.51,32.34-32.34v-63.5C538.29,97.52,476.31,35.54,400.13,35.54L400.13,35.54z"/>
		</g>
		<g>
			<path class="st14" d="M400.13,644.03c-72.94,0-132.28-59.34-132.28-132.28c0-23.24,6.14-46.12,17.75-66.15
				c8.04-13.82,18.32-25.92,30.57-35.99c23.6-19.44,53.42-30.14,83.96-30.14h91.13v5.88c0,15.37-3.91,30.58-11.32,43.99l-1.68,3.04
				h-78.13c-19.68,0-38.58,7.29-53.2,20.53c-9.67,8.76-17.1,19.83-21.49,32.03c-3.1,8.56-4.68,17.58-4.68,26.82
				c0,43.76,35.61,79.37,79.37,79.37h63.49c14.59,0,26.46,11.87,26.46,26.46s-11.87,26.46-26.46,26.46H400.13z"/>
			<path class="st61" d="M485.37,385.35c0,14.9-3.85,28.96-10.58,41.15h-74.67c-21.96,0-42.01,8.35-57.15,22.05
				c-10.29,9.32-18.28,21.08-23.08,34.39c-3.26,9-5.03,18.7-5.03,28.81c0,47,38.24,85.25,85.25,85.25h63.5
				c11.38,0,20.58,9.2,20.58,20.58c0,11.38-9.2,20.58-20.58,20.58h-63.5c-69.7,0-126.4-56.7-126.4-126.4
				c0-23.02,6.17-44.59,16.96-63.2c7.64-13.14,17.55-24.81,29.22-34.39c21.84-17.99,49.8-28.81,80.22-28.81H485.37 M497.13,373.59
				h-11.76h-85.25c-31.9,0-63.04,11.18-87.7,31.49c-12.78,10.49-23.52,23.13-31.91,37.56c-12.14,20.94-18.56,44.84-18.56,69.11
				c0,76.18,61.98,138.16,138.16,138.16h63.5c17.83,0,32.34-14.51,32.34-32.34c0-17.83-14.51-32.34-32.34-32.34h-63.5
				c-40.52,0-73.49-32.97-73.49-73.49c0-8.55,1.45-16.89,4.32-24.8c4.07-11.32,10.96-21.57,19.92-29.69
				c13.54-12.25,31.03-19,49.25-19h74.67h6.94l3.35-6.08c7.88-14.28,12.05-30.48,12.05-46.84V373.59L497.13,373.59z"/>
		</g>
		<g>
			<path class="st14" d="M400.13,517.63c-34.41,0-56.86-5.86-72.81-19l-3.2-2.63l1.4-3.9c5.04-14,13.56-26.71,24.66-36.76l3.76-3.41
				l3.92,3.23c8.67,7.14,19.33,9.55,42.26,9.55c28.84,0,55.48-15.74,69.52-41.07c6.44-11.67,9.85-24.92,9.85-38.3v-63.5
				c0-14.59,11.87-26.46,26.46-26.46c14.59,0,26.46,11.87,26.46,26.46v63.5c0,14.78-2.42,29.27-7.2,43.08
				C506.79,481.78,456.52,517.63,400.13,517.63z"/>
			<path class="st62" d="M505.95,301.28c11.38,0,20.58,9.2,20.58,20.58v63.49c0,14.4-2.41,28.25-6.88,41.15
				c-17.11,49.56-64.23,85.25-119.52,85.25c-30.42,0-53-4.42-69.07-17.65c4.79-13.32,12.79-25.07,23.08-34.39
				c10.88,8.97,24.03,10.89,45.99,10.89c32.1,0,60.12-17.84,74.67-44.09c6.73-12.2,10.58-26.25,10.58-41.15v-63.49
				C485.37,310.48,494.57,301.28,505.95,301.28 M505.95,289.52c-17.83,0-32.34,14.51-32.34,32.34v63.49
				c0,12.4-3.15,24.66-9.12,35.47c-12.99,23.44-37.66,38.02-64.37,38.02c-21.61,0-30.97-2-38.52-8.21l-7.84-6.46l-7.53,6.82
				c-11.81,10.69-20.88,24.22-26.25,39.13l-2.8,7.79l6.39,5.27c17.08,14.06,40.68,20.34,76.54,20.34
				c58.9,0,111.4-37.44,130.64-93.17c4.99-14.41,7.52-29.55,7.52-44.99v-63.49C538.29,304.03,523.78,289.52,505.95,289.52
				L505.95,289.52z"/>
		</g>
	</g>
</g>
</svg>
