<?xml version="1.0" encoding="utf-8"?>
<!-- Generator: Adobe Adobe Illustrator 24.2.0, SVG Export Plug-In . SVG Version: 6.00 Build 0)  -->
<svg version="1.1" xmlns="http://www.w3.org/2000/svg" xmlns:xlink="http://www.w3.org/1999/xlink" x="0px" y="0px" width="579px"
	 height="578px" viewBox="0 0 579 578" style="enable-background:new 0 0 579 578;" xml:space="preserve">
<style type="text/css">
	.st0{display:none;}
	.st1{fill:#333333;}
	.st2{fill:#F6F6F6;}
	.st3{fill:#35F2A0;}
	.st4{fill:#7EF2C0;}
	.st5{opacity:0.502;fill:url(#SVGID_1_);}
	.st6{opacity:0.502;fill:url(#SVGID_2_);}
	.st7{opacity:0.502;fill:url(#SVGID_3_);}
	.st8{opacity:0.502;fill:url(#SVGID_4_);}
	.st9{opacity:0.502;}
	.st10{fill:url(#SVGID_5_);}
	.st11{fill:url(#SVGID_6_);}
	.st12{opacity:0.502;fill:url(#SVGID_7_);}
	.st13{opacity:0.502;fill:url(#SVGID_8_);}
	.st14{fill:#FFFFFF;}
	.st15{display:inline;opacity:0.502;}
	.st16{display:inline;opacity:0.502;fill:none;stroke:#000000;stroke-miterlimit:10;}
	.st17{opacity:0.502;fill:url(#SVGID_9_);}
	.st18{opacity:0.502;fill:url(#SVGID_10_);}
	.st19{opacity:0.502;fill:url(#SVGID_11_);}
	.st20{opacity:0.502;fill:url(#SVGID_12_);}
	.st21{fill:url(#SVGID_13_);}
	.st22{fill:url(#SVGID_14_);}
	.st23{opacity:0.502;fill:url(#SVGID_15_);}
	.st24{opacity:0.502;fill:url(#SVGID_16_);}
	.st25{opacity:0.8;fill:url(#SVGID_17_);}
	.st26{opacity:0.502;fill:url(#SVGID_18_);}
	.st27{opacity:0.502;fill:url(#SVGID_19_);}
	.st28{opacity:0.502;fill:url(#SVGID_20_);}
	.st29{opacity:0.502;fill:url(#SVGID_21_);}
	.st30{fill:url(#SVGID_22_);}
	.st31{fill:url(#SVGID_23_);}
	.st32{opacity:0.502;fill:url(#SVGID_24_);}
	.st33{opacity:0.502;fill:url(#SVGID_25_);}
	.st34{opacity:0.8;fill:url(#SVGID_26_);}
	.st35{opacity:0.502;fill:url(#SVGID_27_);}
	.st36{opacity:0.502;fill:url(#SVGID_28_);}
	.st37{opacity:0.502;fill:url(#SVGID_29_);}
	.st38{opacity:0.502;fill:url(#SVGID_30_);}
	.st39{fill:url(#SVGID_31_);}
	.st40{fill:url(#SVGID_32_);}
	.st41{opacity:0.502;fill:url(#SVGID_33_);}
	.st42{opacity:0.502;fill:url(#SVGID_34_);}
	.st43{opacity:0.8;fill:url(#SVGID_35_);}
	.st44{opacity:0.502;fill:url(#SVGID_36_);}
	.st45{opacity:0.502;fill:url(#SVGID_37_);}
	.st46{opacity:0.502;fill:url(#SVGID_38_);}
	.st47{opacity:0.502;fill:url(#SVGID_39_);}
	.st48{fill:url(#SVGID_40_);}
	.st49{fill:url(#SVGID_41_);}
	.st50{opacity:0.502;fill:url(#SVGID_42_);}
	.st51{opacity:0.502;fill:url(#SVGID_43_);}
	.st52{opacity:0.8;fill:url(#SVGID_44_);}
	.st53{fill:#26306B;}
	.st54{fill:none;stroke:#FFFFFF;stroke-width:6;stroke-miterlimit:10;}
	.st55{fill:none;stroke:#26306B;stroke-width:6;stroke-miterlimit:10;}
	.st56{fill:#26306B;stroke:#FFFFFF;stroke-width:6;stroke-miterlimit:10;}
	.st57{fill:none;stroke:#FFFFFF;stroke-width:6;stroke-linecap:round;stroke-linejoin:round;stroke-miterlimit:10;}
	.st58{fill:#26306B;stroke:#26306B;stroke-width:8;stroke-miterlimit:10;}
	.st59{fill:#26306B;stroke:#26306B;stroke-width:7;stroke-miterlimit:10;}
</style>
<g id="Layer_1" class="st0">
</g>
<g id="Base_color">
</g>
<g id="Layer_5">
</g>
<g id="Layer_4">
</g>
<g id="Layer_2" class="st0">
</g>
<g id="Layer_6">
</g>
<g id="Layer_7">
	<g>
		<g>
			<path class="st14" d="M326.38,551.55c-12.71,0-23.05-10.34-23.05-23.05c0-12.71,10.34-23.05,23.05-23.05h55.33
				c38.13,0,69.16-31.02,69.16-69.16s-31.02-69.16-69.16-69.16H253.67l4.19-7.6c5.62-10.18,8.58-21.72,8.58-33.39v-5.12h115.26
				c63.56,0,115.26,51.71,115.26,115.26s-51.71,115.26-115.26,115.26H326.38z"/>
			<path class="st58" d="M381.71,326.14c60.73,0,110.14,49.41,110.14,110.14c0,60.73-49.41,110.14-110.14,110.14h-55.33
				c-9.91,0-17.93-8.02-17.93-17.93s8.02-17.93,17.93-17.93h55.33c40.96,0,74.28-33.32,74.28-74.28c0-40.96-33.32-74.28-74.28-74.28
				H262.35c5.87-10.63,9.22-22.87,9.22-35.86H381.71 M381.71,315.9H271.57h-10.25v10.25c0,10.8-2.75,21.49-7.95,30.91l-8.39,15.2
				h17.36h119.36c35.31,0,64.04,28.73,64.04,64.04s-28.73,64.04-64.04,64.04h-55.33c-15.54,0-28.18,12.64-28.18,28.18
				c0,15.54,12.64,28.18,28.18,28.18h55.33c66.38,0,120.39-54.01,120.39-120.39S448.09,315.9,381.71,315.9L381.71,315.9z"/>
		</g>
		<g>
			<path class="st14" d="M97.49,383.78c-10.12-17.45-15.47-37.39-15.47-57.64V141.72c0-63.56,51.71-115.26,115.26-115.26
				s115.26,51.71,115.26,115.26v55.33c0,12.71-10.34,23.05-23.05,23.05s-23.05-10.34-23.05-23.05v-55.33
				c0-38.13-31.02-69.16-69.16-69.16s-69.16,31.02-69.16,69.16v184.42c0,8.05,1.37,15.91,4.07,23.36l1.24,3.41l-2.8,2.3
				c-9.73,7.99-17.9,17.61-24.28,28.59l-4.43,7.63L97.49,383.78z"/>
			<path class="st58" d="M197.29,31.58c60.73,0,110.14,49.41,110.14,110.14v55.33c0,9.91-8.02,17.93-17.93,17.93
				c-9.91,0-17.93-8.02-17.93-17.93v-55.33c0-40.96-33.32-74.28-74.28-74.28c-40.96,0-74.28,33.32-74.28,74.28v184.42
				c0,8.81,1.54,17.26,4.38,25.1c-10.17,8.35-18.8,18.52-25.46,29.97c-9.4-16.21-14.78-35.01-14.78-55.07V141.72
				C87.15,80.99,136.56,31.58,197.29,31.58 M197.29,21.33c-66.38,0-120.39,54.01-120.39,120.39v184.42
				c0,21.15,5.59,41.97,16.16,60.21l8.85,15.26l8.87-15.25c6.08-10.45,13.85-19.6,23.11-27.2l5.6-4.6l-2.47-6.81
				c-2.5-6.89-3.77-14.16-3.77-21.61V141.72c0-35.31,28.73-64.04,64.04-64.04s64.04,28.73,64.04,64.04v55.33
				c0,15.54,12.64,28.18,28.18,28.18s28.18-12.64,28.18-28.18v-55.33C317.68,75.33,263.67,21.33,197.29,21.33L197.29,21.33z"/>
		</g>
		<g>
			<path class="st14" d="M197.29,551.55c-63.56,0-115.26-51.71-115.26-115.26c0-20.25,5.35-40.19,15.47-57.64
				c7-12.04,15.96-22.59,26.64-31.36c20.56-16.94,46.55-26.27,73.16-26.27h79.4v5.12c0,13.39-3.41,26.65-9.86,38.34l-1.46,2.65
				h-68.08c-17.15,0-33.61,6.35-46.36,17.89c-8.42,7.63-14.9,17.28-18.73,27.91c-2.7,7.46-4.07,15.32-4.07,23.37
				c0,38.13,31.02,69.16,69.16,69.16h55.33c12.71,0,23.05,10.34,23.05,23.05c0,12.71-10.34,23.05-23.05,23.05H197.29z"/>
			<path class="st58" d="M271.57,326.14c0,12.99-3.36,25.23-9.22,35.86h-65.06c-19.13,0-36.6,7.27-49.79,19.21
				c-8.97,8.12-15.93,18.37-20.11,29.97c-2.84,7.84-4.38,16.29-4.38,25.1c0,40.96,33.32,74.28,74.28,74.28h55.33
				c9.91,0,17.93,8.02,17.93,17.93s-8.02,17.93-17.93,17.93h-55.33c-60.73,0-110.14-49.41-110.14-110.14
				c0-20.06,5.38-38.86,14.78-55.07c6.66-11.45,15.29-21.62,25.46-29.97c19.03-15.68,43.39-25.1,69.9-25.1H271.57 M281.82,315.9
				h-10.25h-74.28c-27.79,0-54.93,9.74-76.42,27.44c-11.13,9.14-20.49,20.16-27.8,32.73c-10.58,18.25-16.17,39.07-16.17,60.22
				c0,66.38,54.01,120.39,120.39,120.39h55.33c15.54,0,28.18-12.64,28.18-28.18c0-15.54-12.64-28.18-28.18-28.18h-55.33
				c-35.31,0-64.04-28.73-64.04-64.04c0-7.45,1.27-14.72,3.77-21.61c3.55-9.86,9.55-18.8,17.35-25.87
				c11.8-10.68,27.04-16.56,42.92-16.56h65.06h6.05l2.92-5.3c6.87-12.44,10.5-26.56,10.5-40.81V315.9L281.82,315.9z"/>
		</g>
		<g>
			<path class="st14" d="M197.29,441.41c-29.98,0-49.55-5.11-63.44-16.55l-2.78-2.29l1.22-3.39c4.39-12.2,11.82-23.27,21.49-32.03
				l3.28-2.97l3.42,2.81c7.56,6.22,16.85,8.32,36.82,8.32c25.13,0,48.34-13.71,60.58-35.78c5.61-10.17,8.58-21.71,8.58-33.38v-55.33
				c0-12.71,10.34-23.05,23.05-23.05s23.05,10.34,23.05,23.05v55.33c0,12.88-2.11,25.51-6.28,37.54
				C290.23,410.17,246.43,441.41,197.29,441.41z"/>
			<path class="st59" d="M289.5,252.88c9.91,0,17.93,8.02,17.93,17.93v55.33c0,12.55-2.1,24.62-5.99,35.86
				c-14.91,43.19-55.97,74.28-104.15,74.28c-26.51,0-46.18-3.85-60.18-15.38c4.18-11.6,11.14-21.85,20.11-29.97
				c9.48,7.81,20.94,9.49,40.08,9.49c27.97,0,52.38-15.55,65.06-38.42c5.87-10.63,9.22-22.87,9.22-35.86v-55.33
				C271.57,260.9,279.59,252.88,289.5,252.88 M289.5,242.64c-15.54,0-28.18,12.64-28.18,28.18v55.33c0,10.8-2.75,21.49-7.95,30.91
				c-11.32,20.43-32.82,33.13-56.09,33.13c-18.83,0-26.99-1.74-33.56-7.15l-6.83-5.63l-6.56,5.94
				c-10.29,9.32-18.2,21.11-22.87,34.09l-2.44,6.79l5.57,4.59c14.88,12.26,35.45,17.72,66.7,17.72c51.33,0,97.07-32.63,113.83-81.18
				c4.35-12.56,6.55-25.75,6.55-39.2v-55.33C317.68,255.28,305.04,242.64,289.5,242.64L289.5,242.64z"/>
		</g>
	</g>
</g>
</svg>
