<?xml version="1.0" encoding="utf-8"?>
<!-- Generator: Adobe Adobe Illustrator 24.2.0, SVG Export Plug-In . SVG Version: 6.00 Build 0)  -->
<svg version="1.1" xmlns="http://www.w3.org/2000/svg" xmlns:xlink="http://www.w3.org/1999/xlink" x="0px" y="0px"
	 width="1011.9px" height="980px" viewBox="0 0 1011.9 980" style="enable-background:new 0 0 1011.9 980;" xml:space="preserve">
<style type="text/css">
	.st0{display:none;}
	.st1{fill:#333333;}
	.st2{fill:#F6F6F6;}
	.st3{fill:#35F2A0;}
	.st4{fill:#7EF2C0;}
	.st5{opacity:0.502;fill:url(#SVGID_1_);}
	.st6{opacity:0.502;fill:url(#SVGID_2_);}
	.st7{opacity:0.502;fill:url(#SVGID_3_);}
	.st8{opacity:0.502;fill:url(#SVGID_4_);}
	.st9{opacity:0.502;}
	.st10{fill:url(#SVGID_5_);}
	.st11{fill:url(#SVGID_6_);}
	.st12{opacity:0.502;fill:url(#SVGID_7_);}
	.st13{opacity:0.502;fill:url(#SVGID_8_);}
	.st14{fill:#FFFFFF;}
	.st15{display:inline;opacity:0.502;}
	.st16{display:inline;opacity:0.502;fill:none;stroke:#000000;stroke-miterlimit:10;}
	.st17{opacity:0.502;fill:url(#SVGID_9_);}
	.st18{opacity:0.502;fill:url(#SVGID_10_);}
	.st19{opacity:0.502;fill:url(#SVGID_11_);}
	.st20{opacity:0.502;fill:url(#SVGID_12_);}
	.st21{fill:url(#SVGID_13_);}
	.st22{fill:url(#SVGID_14_);}
	.st23{opacity:0.502;fill:url(#SVGID_15_);}
	.st24{opacity:0.502;fill:url(#SVGID_16_);}
	.st25{opacity:0.8;fill:url(#SVGID_17_);}
	.st26{opacity:0.502;fill:url(#SVGID_18_);}
	.st27{opacity:0.502;fill:url(#SVGID_19_);}
	.st28{opacity:0.502;fill:url(#SVGID_20_);}
	.st29{opacity:0.502;fill:url(#SVGID_21_);}
	.st30{fill:url(#SVGID_22_);}
	.st31{fill:url(#SVGID_23_);}
	.st32{opacity:0.502;fill:url(#SVGID_24_);}
	.st33{opacity:0.502;fill:url(#SVGID_25_);}
	.st34{opacity:0.8;fill:url(#SVGID_26_);}
	.st35{opacity:0.502;fill:url(#SVGID_27_);}
	.st36{opacity:0.502;fill:url(#SVGID_28_);}
	.st37{opacity:0.502;fill:url(#SVGID_29_);}
	.st38{opacity:0.502;fill:url(#SVGID_30_);}
	.st39{fill:url(#SVGID_31_);}
	.st40{fill:url(#SVGID_32_);}
	.st41{opacity:0.502;fill:url(#SVGID_33_);}
	.st42{opacity:0.502;fill:url(#SVGID_34_);}
	.st43{opacity:0.8;fill:url(#SVGID_35_);}
	.st44{opacity:0.502;fill:url(#SVGID_36_);}
	.st45{opacity:0.502;fill:url(#SVGID_37_);}
	.st46{opacity:0.502;fill:url(#SVGID_38_);}
	.st47{opacity:0.502;fill:url(#SVGID_39_);}
	.st48{fill:url(#SVGID_40_);}
	.st49{fill:url(#SVGID_41_);}
	.st50{opacity:0.502;fill:url(#SVGID_42_);}
	.st51{opacity:0.502;fill:url(#SVGID_43_);}
	.st52{opacity:0.8;fill:url(#SVGID_44_);}
	.st53{fill:#26306B;}
	.st54{fill:none;stroke:#FFFFFF;stroke-width:6;stroke-miterlimit:10;}
	.st55{fill:none;stroke:#26306B;stroke-width:6;stroke-miterlimit:10;}
	.st56{fill:#26306B;stroke:#FFFFFF;stroke-width:6;stroke-miterlimit:10;}
	.st57{fill:none;stroke:#FFFFFF;stroke-width:6;stroke-linecap:round;stroke-linejoin:round;stroke-miterlimit:10;}
	.st58{fill:#26306B;stroke:#26306B;stroke-width:8;stroke-miterlimit:10;}
	.st59{fill:#26306B;stroke:#26306B;stroke-width:7;stroke-miterlimit:10;}
</style>
<g id="Layer_1" class="st0">
</g>
<g id="Base_color">
</g>
<g id="Layer_5">
</g>
<g id="Layer_4">
</g>
<g id="Layer_2" class="st0">
</g>
<g id="Layer_6">
	<g>
		<g>
			<g>
				<path class="st53" d="M175.34,924.72c-7.94,0-13.27-5.21-13.27-12.95V704.47c0-7.75,5.33-12.95,13.27-12.95h48.98
					c8.12,0,13.58,5.21,13.58,12.95v157.37h132.09c7.94,0,13.27,5.21,13.27,12.95v36.97c0,7.75-5.33,12.95-13.27,12.95H175.34z"/>
				<path class="st14" d="M224.32,697.52c4.74,0,7.58,2.53,7.58,6.95v163.37h138.09c4.74,0,7.27,2.53,7.27,6.95v36.97
					c0,4.42-2.53,6.95-7.27,6.95H175.34c-4.74,0-7.27-2.53-7.27-6.95V704.47c0-4.42,2.53-6.95,7.27-6.95H224.32 M224.32,685.52
					h-48.98c-11.34,0-19.27,7.79-19.27,18.95v207.29c0,11.16,7.92,18.95,19.27,18.95h194.65c11.34,0,19.27-7.79,19.27-18.95V874.8
					c0-11.16-7.92-18.95-19.27-18.95H243.9V704.47C243.9,693.49,235.67,685.52,224.32,685.52L224.32,685.52z"/>
			</g>
			<g>
				<path class="st53" d="M407.28,924.72c-7.68,0-12.64-4.84-12.64-12.32V758.83c0-7.48,4.96-12.32,12.64-12.32h44.24
					c7.68,0,12.64,4.84,12.64,12.32V912.4c0,7.48-4.96,12.32-12.64,12.32H407.28z M407.28,737.02c-7.68,0-12.64-4.84-12.64-12.32
					v-27.17c0-7.48,4.96-12.32,12.64-12.32h44.24c7.68,0,12.64,4.84,12.64,12.32v27.17c0,7.48-4.96,12.32-12.64,12.32H407.28z"/>
				<path class="st14" d="M451.52,691.2c4.42,0,6.64,2.21,6.64,6.32v27.17c0,4.11-2.21,6.32-6.64,6.32h-44.24
					c-4.42,0-6.64-2.21-6.64-6.32v-27.17c0-4.11,2.21-6.32,6.64-6.32H451.52 M451.52,752.51c4.42,0,6.64,2.21,6.64,6.32V912.4
					c0,4.11-2.21,6.32-6.64,6.32h-44.24c-4.42,0-6.64-2.21-6.64-6.32V758.83c0-4.11,2.21-6.32,6.64-6.32H451.52 M451.52,679.2
					h-44.24c-10.97,0-18.64,7.53-18.64,18.32v27.17c0,8.18,4.41,14.49,11.33,17.06c-6.92,2.57-11.33,8.88-11.33,17.06V912.4
					c0,10.79,7.66,18.32,18.64,18.32h44.24c10.97,0,18.64-7.53,18.64-18.32V758.83c0-8.18-4.41-14.49-11.33-17.06
					c6.92-2.57,11.33-8.88,11.33-17.06v-27.17C470.16,686.74,462.49,679.2,451.52,679.2L451.52,679.2z"/>
			</g>
			<g>
				<path class="st53" d="M619.31,924.72c-7.56,0-12.64-4.95-12.64-12.32v-97.33c0-5.16-0.44-8.16-1.29-8.9
					c-1.76-1.53-9.45-1.53-11.98-1.53h-16.75c-10.81,0-17.07,2.38-17.07,14.54v93.22c0,7.48-4.96,12.32-12.64,12.32h-44.24
					c-7.68,0-12.64-4.84-12.64-12.32V758.83c0-7.48,4.96-12.32,12.64-12.32h37.92c7.68,0,12.64,4.84,12.64,12.32v1.04
					c8.87-8.88,22.07-13.36,39.5-13.36h30.33c36.22,0,53.08,16.27,53.08,51.19V912.4c0,7.48-4.96,12.32-12.64,12.32H619.31z"/>
				<path class="st14" d="M623.1,752.51c32.86,0,47.08,13.59,47.08,45.19V912.4c0,4.11-2.21,6.32-6.64,6.32h-44.24
					c-4.11,0-6.64-2.21-6.64-6.32v-97.33c0-13.9-2.53-16.43-19.28-16.43h-16.75c-16.43,0-23.07,6.95-23.07,20.54v93.22
					c0,4.11-2.21,6.32-6.64,6.32h-44.24c-4.42,0-6.64-2.21-6.64-6.32V758.83c0-4.11,2.21-6.32,6.64-6.32h37.92
					c4.42,0,6.64,2.21,6.64,6.32v25.6c4.42-20.86,18.96-31.92,45.5-31.92H623.1 M623.1,740.51h-30.33
					c-15.74,0-27.34,3.48-35.85,8.86c-3.07-5.48-8.94-8.86-16.29-8.86h-37.92c-10.97,0-18.64,7.53-18.64,18.32V912.4
					c0,10.79,7.66,18.32,18.64,18.32h44.24c10.97,0,18.64-7.53,18.64-18.32v-93.22c0-3.27,0.56-5.66,1.52-6.56
					c0.5-0.46,2.67-1.98,9.54-1.98h16.75c3.62,0,5.82,0.14,7.14,0.3c0.07,0.91,0.13,2.23,0.13,4.13v97.33
					c0,10.62,7.84,18.32,18.64,18.32h44.24c10.97,0,18.64-7.53,18.64-18.32V797.69c0-19.38-4.88-33.48-14.91-43.11
					C657.39,745.11,642.94,740.51,623.1,740.51L623.1,740.51z"/>
			</g>
			<g>
				<path class="st53" d="M832.61,924.72c-6.54,0-10.76-2.05-14.55-7.08l-43.03-54.54h-5.63v49.3c0,7.48-4.96,12.32-12.64,12.32
					h-44.24c-7.68,0-12.64-4.84-12.64-12.32V691.2c0-7.48,4.96-12.32,12.64-12.32h44.24c7.68,0,12.64,4.84,12.64,12.32v116.92h7.22
					l43.39-54.61c3.46-4.23,7.17-7.01,14.18-7.01h51.51c3.85,0,7.33,2.21,8.87,5.64c1.56,3.48,0.88,7.51-1.78,10.57l-59.36,71.95
					l60.94,73.84c2.7,3.11,3.42,7.18,1.86,10.65c-1.54,3.43-4.97,5.56-8.96,5.56H832.61z"/>
				<path class="st14" d="M756.77,684.88c4.42,0,6.64,2.21,6.64,6.32v122.92h16.12l45.19-56.88c2.84-3.48,5.06-4.74,9.48-4.74h51.51
					c3.16,0,5.06,3.48,2.53,6.32l-62.57,75.84l64.15,77.73c2.53,2.84,0.95,6.32-2.53,6.32h-54.67c-4.42,0-6.95-0.95-9.8-4.74
					l-44.87-56.88H763.4v55.3c0,4.11-2.21,6.32-6.64,6.32h-44.24c-4.42,0-6.64-2.21-6.64-6.32V691.2c0-4.11,2.21-6.32,6.64-6.32
					H756.77 M756.77,672.88h-44.24c-10.97,0-18.64,7.53-18.64,18.32v221.2c0,10.79,7.66,18.32,18.64,18.32h44.24
					c10.97,0,18.64-7.53,18.64-18.32v-39.14l37.9,48.05c4.93,6.51,10.89,9.41,19.3,9.41h54.67c6.38,0,11.91-3.49,14.43-9.1
					c2.52-5.61,1.46-12.09-2.75-16.98l-57.74-69.97l56.16-68.08c4.16-4.83,5.19-11.28,2.67-16.9c-2.51-5.58-8.14-9.19-14.35-9.19
					h-51.51c-7.91,0-13.53,2.73-18.77,9.14l-0.05,0.07l-0.05,0.07l-39.91,50.23V691.2C775.4,680.42,767.74,672.88,756.77,672.88
					L756.77,672.88z"/>
			</g>
		</g>
	</g>
</g>
<g id="Layer_7">
	<g>
		<g>
			<path class="st53" d="M548.83,647.96c-14.78,0-26.8-12.02-26.8-26.8s12.02-26.8,26.8-26.8h64.32c44.33,0,80.4-36.07,80.4-80.4
				s-36.07-80.4-80.4-80.4H464.3l4.87-8.83c6.53-11.83,9.98-25.25,9.98-38.81v-5.96h134c73.89,0,134,60.11,134,134
				s-60.11,134-134,134H548.83z"/>
			<path class="st14" d="M613.15,385.91c70.6,0,128.05,57.44,128.05,128.05c0,70.61-57.44,128.05-128.05,128.05h-64.32
				c-11.52,0-20.85-9.32-20.85-20.85c0-11.52,9.32-20.85,20.85-20.85h64.32c47.62,0,86.36-38.74,86.36-86.36
				c0-47.62-38.74-86.36-86.36-86.36H474.39c6.82-12.36,10.72-26.59,10.72-41.69H613.15 M613.15,373.99H485.11h-11.91v11.91
				c0,12.56-3.19,24.98-9.24,35.94l-9.75,17.67h20.18h138.77c41.05,0,74.45,33.4,74.45,74.45c0,41.05-33.4,74.45-74.45,74.45h-64.32
				c-18.06,0-32.76,14.69-32.76,32.76c0,18.06,14.69,32.76,32.76,32.76h64.32c77.17,0,139.96-62.79,139.96-139.96
				C753.11,436.78,690.33,373.99,613.15,373.99L613.15,373.99z"/>
		</g>
		<g>
			<path class="st53" d="M282.73,452.92c-11.77-20.29-17.98-43.47-17.98-67.01V171.5c0-73.89,60.11-134,134-134s134,60.11,134,134
				v64.32c0,14.78-12.02,26.8-26.8,26.8s-26.8-12.02-26.8-26.8V171.5c0-44.33-36.07-80.4-80.4-80.4s-80.4,36.07-80.4,80.4v214.41
				c0,9.36,1.59,18.49,4.73,27.15l1.44,3.96l-3.25,2.67c-11.31,9.29-20.81,20.47-28.23,33.23l-5.16,8.87L282.73,452.92z"/>
			<path class="st14" d="M398.75,43.45c70.6,0,128.05,57.44,128.05,128.05v64.32c0,11.52-9.32,20.85-20.85,20.85
				c-11.52,0-20.85-9.32-20.85-20.85V171.5c0-47.62-38.74-86.36-86.36-86.36c-47.62,0-86.36,38.74-86.36,86.36v214.41
				c0,10.24,1.79,20.07,5.09,29.18c-11.82,9.71-21.86,21.53-29.6,34.84c-10.93-18.85-17.18-40.71-17.18-64.02V171.5
				C270.7,100.89,328.14,43.45,398.75,43.45 M398.75,31.54c-77.17,0-139.96,62.79-139.96,139.96v214.41c0,24.59,6.5,48.8,18.79,70
				l10.29,17.74l10.31-17.73c7.07-12.15,16.11-22.79,26.86-31.62l6.51-5.35l-2.87-7.92c-2.91-8.01-4.38-16.46-4.38-25.12V171.5
				c0-41.05,33.4-74.45,74.45-74.45s74.45,33.4,74.45,74.45v64.32c0,18.06,14.69,32.76,32.76,32.76c18.06,0,32.76-14.69,32.76-32.76
				V171.5C538.71,94.33,475.92,31.54,398.75,31.54L398.75,31.54z"/>
		</g>
		<g>
			<path class="st53" d="M398.75,647.96c-73.89,0-134-60.11-134-134c0-23.55,6.22-46.72,17.98-67.01
				c8.14-14,18.56-26.26,30.97-36.46c23.91-19.69,54.11-30.54,85.05-30.54h92.31v5.96c0,15.57-3.96,30.98-11.46,44.57l-1.7,3.08
				h-79.15c-19.94,0-39.08,7.39-53.9,20.79c-9.79,8.87-17.32,20.09-21.77,32.44c-3.14,8.67-4.74,17.81-4.74,27.17
				c0,44.33,36.07,80.4,80.4,80.4h64.32c14.78,0,26.8,12.02,26.8,26.8s-12.02,26.8-26.8,26.8H398.75z"/>
			<path class="st14" d="M485.11,385.91c0,15.1-3.9,29.33-10.72,41.69h-75.64c-22.24,0-42.55,8.46-57.89,22.33
				c-10.42,9.44-18.52,21.35-23.38,34.84c-3.31,9.11-5.09,18.94-5.09,29.18c0,47.62,38.74,86.36,86.36,86.36h64.32
				c11.52,0,20.85,9.32,20.85,20.85c0,11.52-9.32,20.85-20.85,20.85h-64.32c-70.6,0-128.05-57.44-128.05-128.05
				c0-23.32,6.25-45.17,17.18-64.02c7.74-13.31,17.78-25.13,29.6-34.84c22.13-18.22,50.45-29.18,81.27-29.18H485.11 M497.02,373.99
				h-11.91h-86.36c-32.31,0-63.86,11.33-88.84,31.9c-12.94,10.63-23.82,23.43-32.32,38.05c-12.3,21.22-18.8,45.42-18.8,70.01
				c0,77.17,62.79,139.96,139.96,139.96h64.32c18.06,0,32.76-14.69,32.76-32.76c0-18.06-14.69-32.76-32.76-32.76h-64.32
				c-41.05,0-74.45-33.4-74.45-74.45c0-8.66,1.47-17.11,4.38-25.12c4.13-11.46,11.1-21.85,20.18-30.07
				c13.72-12.41,31.44-19.25,49.89-19.25h75.64h7.03l3.4-6.16c7.98-14.47,12.2-30.87,12.2-47.45V373.99L497.02,373.99z"/>
		</g>
		<g>
			<path class="st53" d="M398.75,519.91c-34.85,0-57.6-5.94-73.75-19.24l-3.24-2.67l1.42-3.95c5.1-14.18,13.74-27.06,24.98-37.24
				l3.81-3.45l3.97,3.27c8.79,7.24,19.59,9.68,42.81,9.68c29.22,0,56.2-15.94,70.43-41.6c6.52-11.82,9.97-25.24,9.97-38.8v-64.32
				c0-14.78,12.02-26.8,26.8-26.8s26.8,12.02,26.8,26.8v64.32c0,14.97-2.45,29.65-7.3,43.64
				C506.8,483.59,455.88,519.91,398.75,519.91z"/>
			<path class="st14" d="M505.95,300.74c11.52,0,20.85,9.32,20.85,20.85v64.32c0,14.59-2.44,28.62-6.97,41.69
				c-17.33,50.21-65.07,86.36-121.08,86.36c-30.82,0-53.69-4.47-69.97-17.88c4.85-13.49,12.95-25.4,23.38-34.84
				c11.03,9.08,24.35,11.03,46.59,11.03c32.52,0,60.9-18.08,75.64-44.67c6.82-12.36,10.72-26.59,10.72-41.69v-64.32
				C485.11,310.06,494.43,300.74,505.95,300.74 M505.95,288.83c-18.06,0-32.76,14.69-32.76,32.76v64.32
				c0,12.56-3.19,24.98-9.24,35.94c-13.16,23.75-38.15,38.51-65.21,38.51c-21.89,0-31.37-2.02-39.02-8.32l-7.94-6.54l-7.63,6.91
				c-11.96,10.83-21.16,24.54-26.59,39.64l-2.84,7.89l6.47,5.33c17.3,14.25,41.21,20.6,77.54,20.6
				c59.67,0,112.85-37.93,132.34-94.38c5.05-14.6,7.62-29.94,7.62-45.58v-64.32C538.71,303.52,524.01,288.83,505.95,288.83
				L505.95,288.83z"/>
		</g>
	</g>
</g>
</svg>
